# xmcd
#
# Track frame offsets:
#  225
#  22108
#  32279
#  52387
#  68921
#  89537
#  108024
#  125299
#  137392
#  155660
#  173890
#  194980
#  208599
#  222381
#  243999
#  254892
#  267292
#
# Disc length: 3765 seconds
#
# Revision: 0
# Processed by: cddbd v1.4PL0 Copyright (c) Steve Scherf et al.
# Submitted via: AltoMP3_Maker 3.0
#
DISCID=070eb211
DTITLE=Misc - Nejvetsi hity country
DYEAR=1900
DGENRE=
TTITLE0=Pohlednice
TTITLE1=Kolaloka
TTITLE2=Dlouha reka
TTITLE3=Franta ma pera
TTITLE4=Whisky plnej dzban
TTITLE5=Jo, vsichni to maj
TTITLE6=Divka s vlasem medovym
TTITLE7=Laska stoleti
TTITLE8=Pouhy znamy
TTITLE9=Ranec plnej pisni
TTITLE10=Odpocin si Saro
TTITLE11=Hubenej Claim
TTITLE12=Vraceci kocour
TTITLE13=Buraky
TTITLE14=Mam rad
TTITLE15=Rosa na kolejich
TTITLE16=Pane muj
EXTD=
EXTT0=
EXTT1=
EXTT2=
EXTT3=
EXTT4=
EXTT5=
EXTT6=
EXTT7=
EXTT8=
EXTT9=
EXTT10=
EXTT11=
EXTT12=
EXTT13=
EXTT14=
EXTT15=
EXTT16=
PLAYORDER=
